<?xml version="1.0" standalone="no"?>
<!DOCTYPE svg PUBLIC "-//W3C//DTD SVG 20010904//EN"
 "http://www.w3.org/TR/2001/REC-SVG-20010904/DTD/svg10.dtd">
<svg version="1.0" xmlns="http://www.w3.org/2000/svg"
 width="700.000000pt" height="700.000000pt" viewBox="0 0 700.000000 700.000000"
 preserveAspectRatio="xMidYMid meet">
<metadata>
Created by potrace 1.11, written by Peter Selinger 2001-2013
</metadata>
<g transform="translate(0.000000,700.000000) scale(0.100000,-0.100000)"
fill="#000000" stroke="none">
<path d="M4110 6861 c-25 -10 -90 -44 -145 -76 -55 -32 -167 -97 -250 -145
-82 -48 -364 -211 -626 -363 -262 -152 -498 -288 -525 -303 -27 -15 -61 -35
-76 -45 -14 -11 -28 -19 -31 -19 -2 0 -98 -54 -212 -121 -115 -66 -227 -131
-249 -143 -23 -13 -86 -50 -141 -81 -55 -32 -134 -77 -175 -101 -42 -23 -91
-60 -110 -81 l-35 -38 -1 -715 c0 -393 1 -723 4 -732 2 -10 9 -18 14 -18 11 0
450 -247 509 -286 19 -13 37 -24 40 -24 3 0 88 -48 190 -106 101 -58 209 -120
239 -137 30 -16 146 -84 258 -149 111 -65 205 -118 208 -118 3 0 18 -8 32 -19
15 -10 47 -30 72 -43 50 -29 266 -154 350 -204 30 -18 73 -43 95 -55 21 -12
129 -74 240 -138 110 -64 234 -136 275 -159 72 -41 113 -79 87 -79 -7 0 -109
-58 -227 -130 -225 -136 -509 -302 -670 -392 -52 -30 -129 -73 -170 -96 -151
-85 -215 -119 -228 -121 -11 -2 -354 183 -632 340 -41 24 -138 78 -215 120
-77 43 -153 85 -170 95 -16 10 -64 36 -105 58 -41 22 -103 57 -137 76 -59 34
-61 34 -65 13 -1 -11 -3 -337 -3 -723 l1 -703 24 -17 c22 -17 935 -528 1065
-597 139 -74 214 -118 225 -131 13 -16 4 -20 310 155 107 62 215 124 240 138
25 14 342 195 705 402 363 207 674 385 690 394 17 9 37 21 45 26 8 6 123 71
255 146 132 75 273 156 313 181 l73 45 -5 417 c-2 229 -5 559 -5 734 l-1 318
-24 22 c-13 12 -113 74 -222 136 -250 144 -1409 808 -1449 831 -78 44 -315
182 -455 265 -85 50 -228 134 -317 185 -89 52 -160 97 -157 101 3 6 61 40 234
137 64 35 474 273 558 323 45 27 85 49 89 49 3 0 14 6 22 14 9 7 48 31 86 51
39 21 75 41 80 46 43 32 215 122 233 121 12 -1 55 -20 95 -43 39 -23 92 -53
117 -67 25 -14 122 -69 216 -122 93 -54 190 -109 215 -122 24 -14 109 -63 189
-108 80 -45 165 -94 190 -108 25 -14 98 -56 163 -94 65 -37 120 -68 122 -68 3
0 5 330 5 734 0 684 -1 735 -17 754 -15 17 -437 265 -672 394 -31 17 -60 34
-66 38 -5 4 -26 17 -45 27 -391 220 -479 268 -486 270 -5 0 -29 -7 -54 -16z"/>
</g>
</svg>
