<svg xmlns="http://www.w3.org/2000/svg" viewBox="0 0 512 388.41"><defs><style>.cls-1{fill:#fff;}.cls-2{fill:#ff6469;}.cls-3{fill:#ffe169;}.cls-4{fill:#87e1aa;}.cls-5{fill:#e4eaf6;}.cls-6{fill:#00bcd4;}.cls-7{fill:#00737c;}.cls-8{fill:#dee3ed;}.cls-9{fill:#6cafff;}.cls-10{fill:#b4e173;}.cls-11{fill:#ff969b;}.cls-12{fill:#a0dcf0;}.cls-13{fill:#ff0092;}.cls-14{fill:#91e6be;}</style></defs><title>browser</title><g id="Layer_2" data-name="Layer 2"><g id="Layer_1-2" data-name="Layer 1"><path class="cls-1" d="M485.52,0h-459A26.49,26.49,0,0,0,0,26.48V361.93a26.48,26.48,0,0,0,26.48,26.48h459A26.48,26.48,0,0,0,512,361.93V26.48A26.49,26.49,0,0,0,485.52,0ZM441.38,17.65h8.83a8.83,8.83,0,1,1,0,17.66h-8.83a8.83,8.83,0,1,1,0-17.66Zm-247.17,0H406.07a8.83,8.83,0,0,1,0,17.66H194.21a8.83,8.83,0,0,1,0-17.66Zm-44.14,0h8.83a8.83,8.83,0,0,1,0,17.66h-8.83a8.83,8.83,0,1,1,0-17.66Zm-35.31,0h8.83a8.83,8.83,0,0,1,0,17.66h-8.83a8.83,8.83,0,1,1,0-17.66Zm-35.31,0a8.83,8.83,0,1,1-8.83,8.83A8.84,8.84,0,0,1,79.45,17.65ZM53,17.65a8.83,8.83,0,1,1-8.83,8.83A8.83,8.83,0,0,1,53,17.65Zm-26.49,0a8.83,8.83,0,1,1-8.82,8.83A8.83,8.83,0,0,1,26.48,17.65Zm467.87,88.28v256a8.83,8.83,0,0,1-8.83,8.83h-459a8.83,8.83,0,0,1-8.83-8.83V61.79A8.84,8.84,0,0,1,26.48,53h459a8.84,8.84,0,0,1,8.83,8.83Zm-8.83-70.62h-8.83a8.83,8.83,0,1,1,0-17.66h8.83a8.83,8.83,0,1,1,0,17.66Z"/><path class="cls-1" d="M17.66,361.93a8.82,8.82,0,0,0,8.82,8.83h459a8.83,8.83,0,0,0,8.83-8.83v-256H17.66ZM397.24,150.07v-8.83a8.83,8.83,0,0,1,8.83-8.83h53a8.83,8.83,0,0,1,8.82,8.83v79.45a8.82,8.82,0,0,1-8.82,8.83h-53a8.83,8.83,0,0,1-8.83-8.83Zm-97.1,0v-8.83a8.83,8.83,0,0,1,8.83-8.83h53a8.83,8.83,0,0,1,8.83,8.83v79.45a8.83,8.83,0,0,1-8.83,8.83H309a8.83,8.83,0,0,1-8.83-8.83Zm0,114.76A8.83,8.83,0,0,1,309,256H459a8.82,8.82,0,0,1,8.82,8.83v70.62a8.83,8.83,0,0,1-8.82,8.83H309a8.83,8.83,0,0,1-8.82-8.83V264.83ZM203,150.07v-8.83a8.84,8.84,0,0,1,8.83-8.83h53a8.84,8.84,0,0,1,8.83,8.83v79.45a8.83,8.83,0,0,1-8.83,8.83h-53a8.83,8.83,0,0,1-8.83-8.83Zm-158.89,0v-8.83A8.83,8.83,0,0,1,53,132.41H167.73a8.83,8.83,0,0,1,8.82,8.83v79.45a8.82,8.82,0,0,1-8.82,8.83H53a8.83,8.83,0,0,1-8.83-8.83Zm0,114.76A8.83,8.83,0,0,1,53,256H264.83a8.83,8.83,0,0,1,8.83,8.83v70.62a8.84,8.84,0,0,1-8.83,8.83H53a8.83,8.83,0,0,1-8.83-8.83V264.83Z"/><circle class="cls-2" cx="26.48" cy="26.48" r="8.83"/><circle class="cls-3" cx="52.97" cy="26.48" r="8.83"/><circle class="cls-4" cx="79.45" cy="26.48" r="8.83"/><path class="cls-5" d="M114.76,35.31h8.83a8.83,8.83,0,0,0,0-17.66h-8.83a8.83,8.83,0,1,0,0,17.66Z"/><path class="cls-5" d="M150.07,35.31h8.83a8.83,8.83,0,0,0,0-17.66h-8.83a8.83,8.83,0,1,0,0,17.66Z"/><path class="cls-5" d="M441.38,35.31h8.83a8.83,8.83,0,1,0,0-17.66h-8.83a8.83,8.83,0,1,0,0,17.66Z"/><path class="cls-5" d="M485.52,17.65h-8.83a8.83,8.83,0,1,0,0,17.66h8.83a8.83,8.83,0,1,0,0-17.66Z"/><path class="cls-5" d="M194.21,35.31H406.07a8.83,8.83,0,0,0,0-17.66H194.21a8.83,8.83,0,0,0,0,17.66Z"/><path class="cls-6" d="M485.52,53h-459a8.83,8.83,0,0,0-8.83,8.82v44.14h476.7V61.79A8.83,8.83,0,0,0,485.52,53ZM114.76,88.28H44.14a8.83,8.83,0,0,1,0-17.66h70.62a8.83,8.83,0,0,1,0,17.66Zm70.62,0H150.07a8.83,8.83,0,1,1,0-17.66h35.31a8.83,8.83,0,1,1,0,17.66Zm70.62,0H220.69a8.83,8.83,0,1,1,0-17.66H256a8.83,8.83,0,0,1,0,17.66Zm70.62,0H291.31a8.83,8.83,0,1,1,0-17.66h35.31a8.83,8.83,0,0,1,0,17.66Zm70.62,0H361.93a8.83,8.83,0,1,1,0-17.66h35.31a8.83,8.83,0,0,1,0,17.66Zm70.62,0H432.55a8.83,8.83,0,1,1,0-17.66h35.31a8.83,8.83,0,0,1,0,17.66Z"/><path class="cls-1" d="M114.76,70.62H44.14a8.83,8.83,0,0,0,0,17.66h70.62a8.83,8.83,0,0,0,0-17.66Z"/><path class="cls-7" d="M185.38,70.62H150.07a8.83,8.83,0,1,0,0,17.66h35.31a8.83,8.83,0,1,0,0-17.66Z"/><path class="cls-7" d="M256,70.62H220.69a8.83,8.83,0,1,0,0,17.66H256a8.83,8.83,0,0,0,0-17.66Z"/><path class="cls-7" d="M326.62,70.62H291.31a8.83,8.83,0,1,0,0,17.66h35.31a8.83,8.83,0,0,0,0-17.66Z"/><path class="cls-7" d="M397.24,70.62H361.93a8.83,8.83,0,1,0,0,17.66h35.31a8.83,8.83,0,0,0,0-17.66Z"/><path class="cls-7" d="M467.86,70.62H432.55a8.83,8.83,0,1,0,0,17.66h35.31a8.83,8.83,0,0,0,0-17.66Z"/><path class="cls-8" d="M53,229.52H167.73a8.83,8.83,0,0,0,8.82-8.83V150.07a8.83,8.83,0,0,1-8.82,8.83H53a8.83,8.83,0,0,1-8.83-8.83v70.62A8.83,8.83,0,0,0,53,229.52Z"/><path class="cls-8" d="M211.86,229.52h53a8.84,8.84,0,0,0,8.83-8.83V150.07a8.84,8.84,0,0,1-8.83,8.83h-53a8.84,8.84,0,0,1-8.83-8.83v70.62A8.83,8.83,0,0,0,211.86,229.52Z"/><path class="cls-8" d="M309,229.52h53a8.83,8.83,0,0,0,8.83-8.83V150.07a8.83,8.83,0,0,1-8.83,8.83H309a8.83,8.83,0,0,1-8.83-8.83v70.62A8.83,8.83,0,0,0,309,229.52Z"/><path class="cls-8" d="M406.07,229.52h53a8.83,8.83,0,0,0,8.82-8.83V150.07A8.83,8.83,0,0,1,459,158.9h-53a8.83,8.83,0,0,1-8.83-8.83v70.62A8.83,8.83,0,0,0,406.07,229.52Z"/><path class="cls-9" d="M53,158.9H167.73a8.83,8.83,0,0,0,8.82-8.83v-8.83a8.83,8.83,0,0,0-8.82-8.83H53a8.83,8.83,0,0,0-8.83,8.83v8.83A8.83,8.83,0,0,0,53,158.9Z"/><path class="cls-10" d="M211.86,158.9h53a8.84,8.84,0,0,0,8.83-8.83v-8.83a8.84,8.84,0,0,0-8.83-8.83h-53a8.84,8.84,0,0,0-8.83,8.83v8.83A8.84,8.84,0,0,0,211.86,158.9Z"/><path class="cls-11" d="M309,158.9h53a8.83,8.83,0,0,0,8.83-8.83v-8.83a8.83,8.83,0,0,0-8.83-8.83H309a8.83,8.83,0,0,0-8.83,8.83v8.83A8.83,8.83,0,0,0,309,158.9Z"/><path class="cls-12" d="M406.07,158.9h53a8.83,8.83,0,0,0,8.82-8.83v-8.83a8.83,8.83,0,0,0-8.82-8.83h-53a8.83,8.83,0,0,0-8.83,8.83v8.83A8.83,8.83,0,0,0,406.07,158.9Z"/><path class="cls-8" d="M70.62,264.83v70.62a8.83,8.83,0,0,1-8.83,8.83h203a8.83,8.83,0,0,0,8.82-8.83V264.83a8.82,8.82,0,0,0-8.82-8.83h-203A8.83,8.83,0,0,1,70.62,264.83Z"/><path class="cls-8" d="M326.62,264.83v70.62a8.83,8.83,0,0,1-8.83,8.83H459a8.83,8.83,0,0,0,8.83-8.83V264.83A8.83,8.83,0,0,0,459,256H317.79A8.83,8.83,0,0,1,326.62,264.83Z"/><path class="cls-13" d="M53,344.28h8.82a8.83,8.83,0,0,0,8.83-8.83V264.83A8.83,8.83,0,0,0,61.79,256H53a8.83,8.83,0,0,0-8.83,8.83v70.62A8.83,8.83,0,0,0,53,344.28Z"/><path class="cls-14" d="M309,344.28h8.82a8.83,8.83,0,0,0,8.83-8.83V264.83a8.83,8.83,0,0,0-8.83-8.83H309a8.83,8.83,0,0,0-8.83,8.83v70.62A8.83,8.83,0,0,0,309,344.28Z"/></g></g></svg>