<svg xmlns="http://www.w3.org/2000/svg" viewBox="0 0 83.77 73.37"><defs><style>.cls-1{fill:#1d1d1b;}.cls-2{fill:#19a1d6;}</style></defs><title>easitill-logo</title><g id="Layer_2" data-name="Layer 2"><g id="Layer_1-2" data-name="Layer 1"><path class="cls-1" d="M72.63,26.73l0,5.13s0,1.25,0,3.19c0,1,0,2.13,0,3.4s0,2.67,0,4.09,0,2.88,0,4.28,0,2.72,0,3.87c0,2.3,0,3.88,0,3.88A7.74,7.74,0,0,1,71.74,58a9.09,9.09,0,0,1-2.15,2.81,10.38,10.38,0,0,1-3.18,1.9,10.76,10.76,0,0,1-3.86.71l-4.42,0-4.43,0-4.89,0-4.7,0-3.91,0-3.68,0-5.91.07-6.65.1S24,61.88,24.1,60s.16-3.73.16-3.73l.49-5.84s.14-1.3.39-3.22c.13-1,.28-2.06.45-3.23s.38-2.39.58-3.6.43-2.38.64-3.47.42-2.09.6-2.93c.36-1.68.61-2.77.61-2.77a8.82,8.82,0,0,1,2.84-4.37,10.71,10.71,0,0,1,5-2.49L39,23.82c1-.15,2.09-.33,3.34-.51s2.58-.37,4-.55,2.76-.35,4.08-.5l3.66-.38,3.64-.32,6.58-.39,4.19-.11,4.2-.09ZM70.57,15.28s-2,0-5.06.16c-1.52.06-3.28.16-5.14.28s-3.82.29-5.75.48-3.83.4-5.57.62-3.35.44-4.69.64c-2.68.41-4.42.71-4.42.71l-3.6.69-3.58.7s-2.07.46-4.09.94l-4,1s-.55,1.73-1.09,3.5-1.07,3.58-1.07,3.58l-.8,3.14-.8,3.16s-.34,1.52-.82,3.88c-.23,1.18-.5,2.59-.75,4.13s-.52,3.22-.75,4.92-.42,3.45-.58,5.1-.28,3.22-.36,4.56c-.16,2.7-.23,4.52-.23,4.52A11.72,11.72,0,0,0,18,65.83a10.25,10.25,0,0,0,1.73,3.23,8.82,8.82,0,0,0,2.68,2.27,7.76,7.76,0,0,0,3.39,1s1.68.08,4.34.18l4.74.19,5.88.19c2.07.07,4.23.13,6.32.18s4.09.1,5.86.14c3.54.07,6,.1,6,.1s2.71,0,5.46.06,5.51,0,5.51,0,3.48,0,7,0l6.92,0s0-3.06,0-6.14,0-6.16,0-6.16,0-2.43-.07-4.83-.09-4.79-.09-4.79-.06-2.13-.16-5.22c0-1.54-.11-3.29-.19-5.1s-.16-3.69-.25-5.49-.19-3.53-.28-5.1-.17-3-.25-4.11c-.14-2.3-.24-3.76-.24-3.76a5.78,5.78,0,0,0-1.11-2.94,8.81,8.81,0,0,0-2.56-2.35,13.48,13.48,0,0,0-3.63-1.52,17,17,0,0,0-4.36-.53"/><path class="cls-2" d="M45.49.23s-1.6.29-3.92.76c-1.17.23-2.51.51-3.9.82s-2.88.66-4.31,1-2.84.72-4.13,1.07l-3.46,1-3.26,1-5.3,1.72L11.14,9.72,8.67,15,6.72,19.66s-.45,1.13-1.11,2.86c-.32.87-.7,1.9-1.1,3s-.81,2.36-1.22,3.63S2.48,31.74,2.12,33s-.69,2.41-1,3.43C.62,38.47.28,39.87.28,39.87a7.35,7.35,0,0,0,.39,5.22,3,3,0,0,0,3.56,1.47s2.84-.63,6-1.29,6.64-1.35,6.64-1.35l.74-3.62c.37-1.8.75-3.59.75-3.59l0-.16-5.5,1.3L9,38.86,4.47,40.07,5.89,34.4l1.25-4.29L7.9,27.8c.46-1.38,1.08-3.18,1.72-4.91s1.29-3.38,1.77-4.61l.81-2a10.23,10.23,0,0,1,2.61-3.36,11.66,11.66,0,0,1,3.85-2.29L21,9.89c1.4-.43,3.3-1,5.26-1.56s4-1.1,5.6-1.5l2.64-.66,4.88-1.08,6.42-1.23L44.46,7.75l-1.1,3.41-1.43,4.77.18,0,4.08-.65,4.11-.62s.74-3,1.45-5.76,1.38-5.18,1.38-5.18c.4-1.41-.31-2.48-1.72-3.1A10.89,10.89,0,0,0,45.49.23M31.05,33.94l-.76,3.88-.74,3.92,4.8-.69s2.74-.35,5.57-.69,5.75-.67,5.75-.67.36-2.55.74-5,.76-4.85.76-4.85l.77-4.17s-2.25.31-4.47.64-4.42.66-4.42.66a10,10,0,0,1-3,4.32,12,12,0,0,1-5,2.67"/></g></g></svg>