<svg xmlns="http://www.w3.org/2000/svg" viewBox="0 0 491.52 303.91"><defs><style>.cls-1{fill:#64798a;}.cls-2{fill:#2f4859;}.cls-3{fill:#3a556a;}.cls-4{fill:#f7f7f7;}.cls-5{fill:#eaeaea;}</style></defs><title>graduation-cap</title><g id="Layer_2" data-name="Layer 2"><g id="Layer_1-2" data-name="Layer 1"><path class="cls-1" d="M245.75,32.85A155.79,155.79,0,0,0,91.28,168.51,26.34,26.34,0,0,0,107,196.07c47.05,20.31,92.36,36.78,133.63,44.3a25.57,25.57,0,0,0,9.23,0c42.47-7.84,87.66-23.18,134.87-44.12a26.42,26.42,0,0,0,15.52-27.48A155.79,155.79,0,0,0,245.75,32.85Z"/><path class="cls-2" d="M487.88,75.13,247.15,6a5.05,5.05,0,0,0-2.78,0L3.64,75.13a5,5,0,0,0,0,9.67l240.73,69.09a5.05,5.05,0,0,0,2.78,0L487.88,84.8A5,5,0,0,0,487.88,75.13Z"/><path class="cls-3" d="M487.88,69.29,247.15.2a4.87,4.87,0,0,0-2.78,0L3.64,69.29a5,5,0,0,0,0,9.67l240.73,69.1a5.05,5.05,0,0,0,2.78,0L487.88,79A5,5,0,0,0,487.88,69.29Z"/><path class="cls-4" d="M136.63,218.86a8.93,8.93,0,0,1-8.94-8.93v-92.8a8.93,8.93,0,0,1,5.7-8.33L239.85,67.45a8.94,8.94,0,1,1,6.47,16.66L145.57,123.25v86.68A8.93,8.93,0,0,1,136.63,218.86Z"/><ellipse class="cls-2" cx="245.76" cy="74.13" rx="23.03" ry="14.89"/><polygon class="cls-4" points="169.5 303.91 103.75 303.91 122.51 201.31 150.74 201.31 169.5 303.91"/><circle class="cls-5" cx="136.63" cy="196.04" r="23.4" transform="translate(-68.6 318.42) rotate(-85.93)"/></g></g></svg>