<svg xmlns="http://www.w3.org/2000/svg" viewBox="0 0 593.93 1012.34"><defs><style>.cls-1{fill:#383838;}.cls-2{fill:#fdfdfd;}</style></defs><title>Asset 1</title><g id="Layer_2" data-name="Layer 2"><g id="Layer_1-2" data-name="Layer 1"><path d="M393.12,673c-7.2-4-14.44-7.9-21.58-12q-17.82-10.17-35.53-20.5c-11.26-6.55-22.46-13.2-33.73-19.73-11.83-6.87-23.73-13.62-35.56-20.48-15.12-8.77-30.2-17.62-45.32-26.4-12-6.94-24-13.77-35.88-20.76-13.8-8.08-27.45-16.44-41.33-24.4-14.89-8.53-30-16.67-44.95-25.12-14.18-8-28.24-16.22-42.4-24.27-10.5-6-21.08-11.82-31.63-17.71Q15.63,456.3,6,451c.67-2.75,1.92-5.51,1.93-8.27q.15-101.15.08-202.3v-6.68c3.65,1.8,6.48,3.08,9.19,4.56q47.73,26,95.41,52.12,37,20.22,74,40.38c3.3,1.78,7,2.87,10.46,4.28,10.44,6,20.94,12,31.32,18.1,23.84,14.08,47.5,28.47,71.47,42.33,39.73,23,79.65,45.64,119.48,68.42l97.58,55.82q33.92,19.39,67.82,38.84c.53.31.86,1,1.29,1.46a32.53,32.53,0,0,1-4.13,3.43q-25.14,14.74-50.38,29.37-47.6,27.7-95.21,55.38C421.94,656.53,407.51,664.75,393.12,673Z"/><path d="M200,789.22c28.32-15.85,56.83-31.36,84.9-47.64,33.51-19.44,66.64-39.55,99.93-59.37,3.39-2,6.75-4.06,10.13-6.09,2.11,2.87,4.16,1.39,6.4.08q31.41-18.42,62.88-36.73,47.64-27.74,95.29-55.42c8.53-5,17.07-9.92,26.06-15.14.16,1.7.29,2.5.3,3.31.32,27.62.69,55.25.94,82.87q.57,64.17,1.06,128.34A31.64,31.64,0,0,0,589,789.2c-5.78,3.6-11.45,7.39-17.37,10.76q-66,37.62-132,75.08c-14.16,8-28.5,15.76-42.61,23.89q-95.46,55-190.84,110.11a4.2,4.2,0,0,1-.95.29c-.45-1.5-1.26-3-1.3-4.49-.38-15.29-.76-30.58-.93-45.87q-.6-57.16-1-114.32c-.13-16.15,0-32.31-.2-48.46C201.81,793.86,200.65,791.55,200,789.22Z"/><path d="M6.94,222c4.33-2.92,8.51-6.09,13-8.71q43-25,86.21-49.76c22.44-12.9,45-25.61,67.41-38.57,26.51-15.33,52.87-30.92,79.38-46.26,20.72-12,41.61-23.67,62.34-35.63C338,30,360.53,16.77,383.17,3.63c2.17-1.26,4.51-2.21,6.78-3.31.71,1.85,2,3.7,2,5.56q-.35,106.53-.93,213.07c0,1-.09,2-.14,3Q351,245.11,311,268.27,273.92,289.69,236.8,311,218.4,321.58,200,332.09c-1.66-1.48-3.12-3.32-5-4.38-9.59-5.33-19.31-10.42-28.95-15.67q-59.76-32.57-119.49-65.17C35,240.59,23.42,234.37,12,228,9.65,226.71,6.41,225.86,6.94,222Z"/><path d="M400.11,0c11.95,6.61,24,13.1,35.84,19.86,24.61,14,49.13,28.21,73.71,42.29C535,76.65,560.31,91,585.49,105.69c2.72,1.59,4.43,4.9,6.61,7.42v27c-.07,1.83-.19,3.66-.19,5.48q0,90.26,0,180.49c0,6.91-.42,7.27-6.32,3.93-19.61-11.12-39.14-22.36-58.71-33.56q-28.19-16.12-56.38-32.23Q443.84,249,417.09,234c-6.67-3.76-13.36-7.48-20-11.22a39.64,39.64,0,0,0,.88-5.87q.52-63.43.91-126.88c.15-28.17.07-56.33.18-84.49A29.74,29.74,0,0,1,400.11,0Z"/><path d="M.09,748.51c.12-10.63.3-21.25.36-31.88.06-12,0-23.92,0-36.52,7.18,3.89,14,7.48,20.69,11.21,20.89,11.61,41.74,23.3,62.64,34.89q55.14,30.56,110.3,61a30.3,30.3,0,0,1,2.82,2c-.63,1.93-1.82,3.86-1.8,5.77.15,16.78.59,33.55.79,50.33q.58,48.87,1,97.74c.15,20,.11,39.93.07,59.9a27.32,27.32,0,0,1-1,5.13L39.7,921.23C29.14,915.36,19,908.49,7.85,904c-7-2.83-7-6.73-7-12.45.15-16.48-.06-33-.13-49.46q0-44.9,0-89.79A21.76,21.76,0,0,0,.09,748.51Z"/><path class="cls-1" d="M589,789.2a31.64,31.64,0,0,1-1.13-5.77q-.58-64.17-1.06-128.34c-.25-27.62-.62-55.25-.94-82.87,0-.81-.14-1.61-.3-3.31-9,5.22-17.53,10.17-26.06,15.14q-47.65,27.71-95.29,55.42-31.45,18.33-62.88,36.73c-2.24,1.31-4.29,2.79-6.4-.08l-1.86-3.1c14.39-8.27,28.82-16.49,43.18-24.82q47.64-27.65,95.21-55.38,25.22-14.66,50.38-29.37A32.53,32.53,0,0,0,586,560l5.6,3.18c.12,1.48.34,3,.34,4.45q.16,36.89.3,73.77a55.18,55.18,0,0,0,.65,5.84q0,13.41.05,26.83.13,39,.29,78.06a47.51,47.51,0,0,0,.61,5.3c-.05,7.79-.38,15.59,0,23.36C594,785,593.17,787.84,589,789.2Z"/><path class="cls-1" d="M6.94,222c-.53,3.82,2.71,4.67,5,6,11.47,6.38,23,12.6,34.56,18.88Q106.26,279.47,166,312c9.64,5.25,19.36,10.34,28.95,15.67,1.89,1.06,3.35,2.9,5,4.38-1,1-1.94,2-2.9,3-3.5-1.41-7.16-2.5-10.46-4.28q-37-20.07-74-40.38-47.7-26.07-95.41-52.12c-2.71-1.48-5.54-2.76-9.19-4.56v6.68q0,101.16-.08,202.3c0,2.76-1.26,5.52-1.93,8.27L1.7,449.05c0-2,.1-4,.1-6q0-102.93,0-205.86c0-3.93-1-8.2,3-11.09Q5.87,224.08,6.94,222Z"/><path class="cls-1" d="M400.11,0A29.74,29.74,0,0,0,399,5.58c-.11,28.16,0,56.32-.18,84.49q-.33,63.44-.91,126.88a39.64,39.64,0,0,1-.88,5.87l-6.13-.88c.05-1,.14-2,.14-3q.53-106.54.93-213.07c0-1.86-1.33-3.71-2-5.56Z"/><path class="cls-1" d="M196,1008.09a27.32,27.32,0,0,0,1-5.13c0-20,.08-39.94-.07-59.9q-.37-48.87-1-97.74c-.2-16.78-.64-33.55-.79-50.33,0-1.91,1.17-3.84,1.8-5.77H200c.63,2.33,1.79,4.64,1.82,7,.19,16.15.07,32.31.2,48.46q.42,57.17,1,114.32c.17,15.29.55,30.58.93,45.87,0,1.51.85,3,1.3,4.49l-4.47,3Z"/><path class="cls-2" d="M4.79,226.11c-4,2.89-3,7.16-3,11.09q0,102.93,0,205.86c0,2-.07,4-.1,6a33.34,33.34,0,0,1-.7-4.82Q.94,338.32.9,232.38C.89,229.17,1.39,226.9,4.79,226.11Z"/><path class="cls-2" d="M.09,748.51a21.76,21.76,0,0,1,.68,3.78q0,44.9,0,89.79A14.62,14.62,0,0,1,0,838.79Q0,793.66.09,748.51Z"/><path class="cls-2" d="M592.91,647.26a55.18,55.18,0,0,1-.65-5.84q-.19-36.88-.3-73.77c0-1.49-.22-3-.34-4.45.45,1.46,1.29,2.93,1.29,4.4Q593,607.44,592.91,647.26Z"/><path class="cls-2" d="M593.86,757.45a47.51,47.51,0,0,1-.61-5.3q-.18-39-.29-78.06a14.67,14.67,0,0,1,1,3.67Q594,717.6,593.86,757.45Z"/><path class="cls-2" d="M592.1,140.08v0Z"/></g></g></svg>