<svg xmlns="http://www.w3.org/2000/svg" viewBox="0 0 592.55 1012.6"><defs><style>.cls-1{fill:#3a3a3a;}.cls-2{fill:#353535;}.cls-3{fill:#474747;}</style></defs><title>logo-3A_1</title><g id="Layer_2" data-name="Layer 2"><g id="Layer_0_Image" data-name="Layer 0 Image"><path class="cls-1" d="M196.2,335.4q24,13.8,48,27.7c17.9,10.5,35.6,21.3,53.5,31.6Q439,475.85,580.5,556.8a52.23,52.23,0,0,1,4.8,3.4,39.34,39.34,0,0,1-3.8,3.1c-20.8,12.2-41.5,24.4-62.4,36.5q-38,22.05-75.8,44.1-25.2,14.7-50.2,29.6c-13.5-7.7-27-15.3-40.5-23.1-61.9-35.9-123.7-72-185.7-107.7-53.7-31-107.7-61.6-161.7-92.3.7-2.2,1.9-4.5,1.9-6.7q.15-101.7.1-203.3V234c3.8,1.9,6.5,3.2,9.1,4.6q41,22.35,81.8,44.8c29.3,16,58.71,32,88,48C189.3,333,192.9,334,196.2,335.4Z"/><path class="cls-2" d="M588.3,789.6a45,45,0,0,1-5.1,3.8Q494.55,844,406,894.5q-100.2,57.3-200.4,114.8a21.4,21.4,0,0,1-2.2,1c-.4-16.9-.9-33.9-1.09-50.8-.41-33.4-.8-66.8-1-100.3-.21-20.5-.1-40.9-.21-61.4a72.9,72.9,0,0,0-.9-8.3c29.5-16.4,59.3-32.4,88.5-49.3,34.5-20,68.5-40.9,102.8-61.4a22.45,22.45,0,0,1,2.7-1.3c3.3,2.3,5.7-.2,8.1-1.7,21.1-12.3,42.2-24.7,63.3-37q47.7-27.75,95.3-55.4c7.8-4.6,15.7-9.1,24.1-14,.1,1.7.3,2.5.3,3.3q.45,60.9,1,121.8c.2,28.7.1,57.3.3,86C586.4,783.5,587.6,786.5,588.3,789.6Z"/><path class="cls-2" d="M5,225.4c2.5-2.5,4.7-5.6,7.7-7.4Q118,157.1,223.5,96.4,300.75,51.85,377.9,7c4.3-2.5,8.8-4.5,13.2-6.7q-.45,111-1,222-81.3,46.95-162.5,94c-9.7,5.6-19.6,11.1-29.4,16.6-1-1.5-1.7-3.6-3.1-4.4C160,309.3,124.7,290.2,89.6,271,69.8,260.2,50,249.2,30.1,238.4,21.9,234,13.4,229.7,5,225.4Z"/><path class="cls-1" d="M398.6,0c14,7.9,28.1,15.6,42.1,23.6q70.95,40.65,141.9,81.3c5.6,3.2,7.91,6.9,7.8,13.4q-.3,104-.2,207.9c0,2.1-.3,4.1-.6,7-15.29-8.8-29.79-17.1-44.29-25.4l-149.4-84.9c-.3-.1-.4-.5-.6-.7a24.74,24.74,0,0,0,1-5.3q.6-63.9.9-127.7c.1-28,.1-55.9.2-83.9C397.4,3.7,398.2,1.8,398.6,0Z"/><path class="cls-1" d="M.3,680.5l119.4,66.3c23.4,13,46.9,25.9,70.3,38.8,1.9,1,3.6,2.3,5.5,3.4-.4,2.2-1.2,4.5-1.2,6.7.2,22.6.6,45.2.8,67.8.3,26.3.8,52.5,1,78.8.2,22.1,0,44.3,0,66.4q-25.5-14-50.9-28C98.9,955,52.8,929,6.4,903.6c-5.1-2.8-6.5-5.5-6.4-10.8.3-16.8.1-33.6,0-50.4V748.9"/><path class="cls-3" d="M588.3,789.6c-.7-3-1.9-6.1-1.9-9.1-.2-28.7-.1-57.3-.3-86q-.3-60.9-1-121.8a29.79,29.79,0,0,0-.3-3.3c-8.4,4.9-16.2,9.4-24.1,14q-47.7,27.75-95.3,55.4c-21.09,12.3-42.2,24.7-63.3,37-2.5,1.4-4.9,3.9-8.09,1.7-.3-1.3-.6-2.6-.91-3.9q25.06-14.85,50.21-29.6c25.2-14.7,50.59-29.4,75.79-44.1q31.2-18.15,62.41-36.5a27.16,27.16,0,0,0,3.8-3.1c6,2.8,6,8,6,13.7-.21,23,0,46,.2,69,.3,37,.7,73.9,1,110.9.09,11,0,22,0,33.3C591.5,787.7,589.9,788.6,588.3,789.6Z"/><path class="cls-3" d="M5,225.4c8.4,4.4,16.8,8.6,25.1,13.1,19.9,10.8,39.6,21.8,59.5,32.6,35.2,19.2,70.4,38.2,105.5,57.5,1.41.8,2.1,2.9,3.1,4.4l-2.1,2.4c-3.29-1.4-6.79-2.4-10-4.1q-44.1-23.85-88-48-40.93-22.35-81.79-44.8c-2.61-1.4-5.3-2.7-9.11-4.6v6.4q0,101.7-.1,203.3c0,2.2-1.29,4.5-1.9,6.7C2,450.5,1,449,1,445.8c.1-71.3,0-142.6.2-213.8C1.2,229.8,3.7,227.6,5,225.4Z"/><path class="cls-3" d="M399.5.1c-.4,1.8-1.3,3.7-1.3,5.5-.1,28,0,55.9-.2,83.9-.2,42.6-.6,85.1-.9,127.7,0,1.8-.7,3.5-1,5.3-2-.1-4-.1-6-.2q.45-111,1-222C394,.3,396.8.2,399.5.1Z"/><path class="cls-3" d="M196.1,1008.7c0-22.1.1-44.3,0-66.4-.2-26.3-.59-52.5-1-78.8q-.43-33.9-.79-67.8c0-2.2.79-4.5,1.2-6.7,1.59.1,3.09.3,4.7.4a80.86,80.86,0,0,1,.9,8.3c.1,20.5,0,40.9.2,61.4q.45,50.1,1,100.3c.2,16.9.7,33.9,1.1,50.8-1.1.7-2.1,1.5-3.5,2.4C198.6,1011.4,197.4,1010,196.1,1008.7Z"/></g></g></svg>