<?xml version="1.0"?>
<svg xmlns="http://www.w3.org/2000/svg" xmlns:xlink="http://www.w3.org/1999/xlink" version="1.1" id="Capa_1" x="0px" y="0px" viewBox="0 0 512 512" style="enable-background:new 0 0 512 512;" xml:space="preserve" data-minimalscrollbar="yes" width="512px" height="512px" class=""><g><polygon style="fill:#F6F6F6" points="256,328.372 256,448 333.69,370.439 " data-original="#657FC9" class="" data-old_color="#f6f6f6"/><polygon style="fill:#FAFAFA" points="10,225.671 502,10 502,441.342 " data-original="#8CCEEA" class="" data-old_color="#fafafa"/><polygon style="fill:#F6F6F6" points="10,225.671 502,10 256,328.372 " data-original="#34BFE0" class="active-path" data-old_color="#f6f6f6"/><path d="M507.47,1.629c-2.826-1.846-6.393-2.143-9.485-0.788l-492,215.671C2.349,218.107,0,221.701,0,225.671  s2.349,7.564,5.985,9.159L246,340.042V448c0,4.043,2.435,7.688,6.169,9.237c1.238,0.514,2.539,0.763,3.828,0.763  c2.6,0,5.155-1.014,7.068-2.923l74.862-74.738l160.058,70.162c1.285,0.563,2.652,0.841,4.014,0.841c1.915,0,3.819-0.55,5.471-1.629  c2.826-1.847,4.53-4.995,4.53-8.371V10C512,6.624,510.297,3.475,507.47,1.629z M470.132,34.888L249.898,319.913l-26.991-11.832  l94.601-122.432c3.377-4.37,2.571-10.65-1.799-14.027s-10.65-2.571-14.027,1.799l-97.655,126.384L34.908,225.671L470.132,34.888z   M266,423.886v-75.077l52.257,22.907L266,423.886z M268.778,328.189L492,39.297V426.04L268.778,328.189z" data-original="#000000" class="" style="fill:#FFFFFF" data-old_color="#ffffff"/><path d="M343.622,414.82c-4.37-3.376-10.65-2.571-14.027,1.799l-61.249,79.267c-3.377,4.37-2.571,10.65,1.799,14.027  c1.82,1.407,3.972,2.087,6.107,2.087c2.991,0,5.95-1.336,7.92-3.886l61.249-79.267C348.798,424.477,347.992,418.197,343.622,414.82z  " data-original="#000000" class="" style="fill:#FFFFFF" data-old_color="#ffffff"/><path d="M137.146,494.009c-4.368-3.379-10.648-2.578-14.028,1.789l-0.063,0.082c-3.38,4.368-2.579,10.648,1.789,14.028  c1.821,1.409,3.975,2.092,6.112,2.092c2.989,0,5.945-1.334,7.916-3.881l0.063-0.082C142.315,503.67,141.514,497.389,137.146,494.009  z" data-original="#000000" class="" style="fill:#FFFFFF" data-old_color="#ffffff"/><path d="M214.591,393.768c-4.37-3.377-10.65-2.571-14.027,1.799l-57.807,74.813c-3.377,4.37-2.571,10.65,1.799,14.027  c1.82,1.407,3.972,2.087,6.107,2.087c2.991,0,5.95-1.336,7.92-3.886l57.807-74.813C219.767,403.426,218.962,397.145,214.591,393.768  z" data-original="#000000" class="" style="fill:#FFFFFF" data-old_color="#ffffff"/><path d="M326.12,158.135c1.822,1.41,3.976,2.092,6.114,2.092c2.988,0,5.944-1.334,7.915-3.88l0.122-0.158  c3.38-4.367,2.58-10.648-1.788-14.029c-4.368-3.38-10.648-2.58-14.029,1.788l-0.122,0.158  C320.952,148.473,321.753,154.754,326.12,158.135z" data-original="#000000" class="" style="fill:#FFFFFF" data-old_color="#ffffff"/></g> </svg>
